<svg width="55" height="55" viewBox="0 0 55 55" fill="none" xmlns="http://www.w3.org/2000/svg">
<path d="M39.8009 54.4214C47.733 54.4214 54.1633 47.9599 54.1633 39.9893C54.1633 32.0186 47.733 25.5571 39.8009 25.5571C31.8688 25.5571 25.4385 32.0186 25.4385 39.9893C25.4385 47.9599 31.8688 54.4214 39.8009 54.4214Z" fill="#97CF26"/>
<path d="M12.8033 46.7072C16.4956 46.7072 19.4887 43.6995 19.4887 39.9893C19.4887 36.2792 16.4956 33.2715 12.8033 33.2715C9.11108 33.2715 6.11792 36.2792 6.11792 39.9893C6.11792 43.6995 9.11108 46.7072 12.8033 46.7072Z" fill="#A169F7"/>
<path d="M39.8011 22.1501C44.9066 22.1501 49.0455 17.9911 49.0455 12.8608C49.0455 7.73049 44.9066 3.57153 39.8011 3.57153C34.6955 3.57153 30.5566 7.73049 30.5566 12.8608C30.5566 17.9911 34.6955 22.1501 39.8011 22.1501Z" fill="#FF6163"/>
<path d="M12.8034 24.7214C19.3223 24.7214 24.6068 19.4112 24.6068 12.8607C24.6068 6.31022 19.3223 1 12.8034 1C6.28457 1 1 6.31022 1 12.8607C1 19.4112 6.28457 24.7214 12.8034 24.7214Z" fill="#00AAFF"/>
</svg>
