<svg width="206" height="72" viewBox="0 0 206 72" fill="none" xmlns="http://www.w3.org/2000/svg">
<path d="M47.7574 62.3572C55.6896 62.3572 62.1199 55.8957 62.1199 47.9251C62.1199 39.9544 55.6896 33.4929 47.7574 33.4929C39.8253 33.4929 33.395 39.9544 33.395 47.9251C33.395 55.8957 39.8253 62.3572 47.7574 62.3572Z" fill="#97CF26"/>
<path d="M20.7599 54.643C24.4521 54.643 27.4453 51.6353 27.4453 47.9251C27.4453 44.215 24.4521 41.2073 20.7599 41.2073C17.0676 41.2073 14.0745 44.215 14.0745 47.9251C14.0745 51.6353 17.0676 54.643 20.7599 54.643Z" fill="#A169F7"/>
<path d="M47.7576 30.0859C52.8631 30.0859 57.002 25.9269 57.002 20.7966C57.002 15.6663 52.8631 11.5073 47.7576 11.5073C42.652 11.5073 38.5132 15.6663 38.5132 20.7966C38.5132 25.9269 42.652 30.0859 47.7576 30.0859Z" fill="#FF6163"/>
<path d="M20.76 32.6572C27.2788 32.6572 32.5634 27.347 32.5634 20.7965C32.5634 14.246 27.2788 8.93579 20.76 8.93579C14.2411 8.93579 8.95654 14.246 8.95654 20.7965C8.95654 27.347 14.2411 32.6572 20.76 32.6572Z" fill="#00AAFF"/>
<path d="M99.4596 54.5646H106.915L93.1075 16.7852H87.6997L73.8894 54.5659H81.3457L83.9828 47.3543H96.8226L99.4596 54.5659L86.0594 41.6689L90.4033 29.7889L94.7447 41.6689H86.0594L99.4596 54.5646ZM125.398 28.7719L118.536 47.5394L111.678 28.7719H104.673L114.104 54.5646H122.97L132.4 28.7719H125.396M135.332 28.7719H142.337V54.5646H135.332V28.7719Z" fill="white"/>
<path d="M138.858 25.8429C141.349 25.8429 143.368 23.8137 143.368 21.3107C143.368 18.8077 141.349 16.7786 138.858 16.7786C136.367 16.7786 134.348 18.8077 134.348 21.3107C134.348 23.8137 136.367 25.8429 138.858 25.8429Z" fill="white"/>
<path d="M167.071 34.456V28.7719H158.679V21.6567H151.679V28.7719H146.138V34.456H151.679V45.553C151.679 51.277 154.527 55.0975 161.8 55.0975C164.608 55.0975 167.071 54.0612 167.071 54.0612L166.22 48.4922C166.22 48.4922 164.842 48.9062 163.146 48.9062C161.068 48.9062 158.679 48.0062 158.679 45.1197V34.4554L167.071 34.456ZM183.135 48.669C179.23 48.669 176.065 45.5575 176.065 41.7197C176.065 37.885 179.23 34.773 183.134 34.773C187.041 34.773 190.205 37.8857 190.205 41.7203C190.205 45.5582 187.041 48.669 183.135 48.669ZM183.135 28.1136C175.543 28.1136 169.385 34.1661 169.385 41.6264C169.385 49.09 175.543 55.1393 183.135 55.1393C190.723 55.1393 196.881 49.09 196.881 41.6264C196.881 34.1661 190.723 28.1136 183.134 28.1136" fill="white"/>
</svg>
