<svg width="800" height="800" viewBox="0 0 800 800" fill="none" xmlns="http://www.w3.org/2000/svg">
<path d="M547.437 63H252.562C147.25 63 63 147.25 63 252.562V378.937V547.437C63 652.75 147.25 737 252.562 737H547.437C652.75 737 737 652.75 737 547.437V378.937V252.562C737 147.25 652.75 63 547.437 63ZM400 273.625C469.506 273.625 526.375 330.494 526.375 400C526.375 469.506 469.506 526.375 400 526.375C330.494 526.375 273.625 469.506 273.625 400C273.625 330.494 330.494 273.625 400 273.625ZM526.375 210.437C526.375 187.269 545.331 168.312 568.5 168.312C591.669 168.312 610.625 187.269 610.625 210.437C610.625 233.606 591.669 252.562 568.5 252.562C545.331 252.562 526.375 233.606 526.375 210.437Z" fill="#CE543A"/>
</svg>
