<svg width="146" height="146" viewBox="0 0 146 146" fill="none" xmlns="http://www.w3.org/2000/svg">
<path d="M73 0C113.317 0 146 32.6832 146 73C146 113.317 113.317 146 73 146C32.6832 146 0 113.317 0 73C0 32.6832 32.6832 0 73 0ZM53.75 29C40 29 29 40 29 53.75V92.25C29 106 40 117 53.75 117H92.25C106 117 117 106 117 92.25V53.75C117 40 106 29 92.25 29H53.75ZM73 56.5C82.075 56.5 89.5 63.925 89.5 73C89.5 82.075 82.075 89.5 73 89.5C63.925 89.5 56.5 82.075 56.5 73C56.5 63.925 63.925 56.5 73 56.5ZM95 42.75C98.025 42.75 100.5 45.225 100.5 48.25C100.5 51.275 98.025 53.75 95 53.75C91.975 53.75 89.5 51.275 89.5 48.25C89.5 45.225 91.975 42.75 95 42.75Z" fill="#00BE7F"/>
</svg>
