<svg width="146" height="146" viewBox="0 0 146 146" fill="none" xmlns="http://www.w3.org/2000/svg">
<circle cx="73" cy="73" r="73" fill="#F0EEED"/>
<path d="M92.25 29H53.75C40 29 29 40 29 53.75V70.25V92.25C29 106 40 117 53.75 117H92.25C106 117 117 106 117 92.25V70.25V53.75C117 40 106 29 92.25 29ZM73 56.5C82.075 56.5 89.5 63.925 89.5 73C89.5 82.075 82.075 89.5 73 89.5C63.925 89.5 56.5 82.075 56.5 73C56.5 63.925 63.925 56.5 73 56.5ZM89.5 48.25C89.5 45.225 91.975 42.75 95 42.75C98.025 42.75 100.5 45.225 100.5 48.25C100.5 51.275 98.025 53.75 95 53.75C91.975 53.75 89.5 51.275 89.5 48.25Z" fill="#00BE7F"/>
</svg>
