<svg width="100" height="100" viewBox="0 0 100 100" fill="none" xmlns="http://www.w3.org/2000/svg">
<path d="M86.2902 15.2271C86.2902 15.2271 94.3846 12.0709 93.71 19.736C93.4852 22.8923 91.4617 33.9392 89.8877 45.888L84.4915 81.2832C84.4915 81.2832 84.0419 86.4684 79.9946 87.3702C75.9473 88.2719 69.8767 84.214 68.7523 83.3121C67.8529 82.6359 51.8892 72.4907 46.2679 67.5309C44.694 66.1782 42.8952 63.4727 46.4927 60.3165L70.1015 37.7719C72.7996 35.0665 75.4977 28.754 64.2554 36.4192L32.7773 57.8367C32.7773 57.8367 29.1798 60.0911 22.4346 58.0621L7.81963 53.5532C7.81963 53.5532 2.42336 50.1715 11.642 46.7896C34.1265 36.1936 61.7823 25.3721 86.2902 15.2271Z" fill="#DDDDDD"/>
</svg>
