<svg width="800" height="800" viewBox="0 0 800 800" fill="none" xmlns="http://www.w3.org/2000/svg">
<path d="M690.322 121.817C690.322 121.817 755.077 96.5668 749.68 157.888C747.882 183.139 731.693 271.514 719.102 367.104L675.932 650.265C675.932 650.265 672.335 691.747 639.957 698.962C607.578 706.175 559.013 673.712 550.018 666.497C542.823 661.087 415.113 579.925 370.143 540.247C357.552 529.425 343.162 507.782 371.942 482.532L560.812 302.175C582.397 280.532 603.982 230.032 514.043 291.354L262.218 462.694C262.218 462.694 233.438 480.729 179.477 464.497L62.557 428.425C62.557 428.425 19.3868 401.372 93.1358 374.317C273.012 289.549 494.258 202.977 690.322 121.817Z" fill="#CE543A"/>
</svg>
