<svg width="146" height="146" viewBox="0 0 146 146" fill="none" xmlns="http://www.w3.org/2000/svg">
<path d="M73 0C113.317 0 146 32.6832 146 73C146 113.317 113.317 146 73 146C32.6832 146 0 113.317 0 73C0 32.6832 32.6832 0 73 0ZM110.71 44.7363C111.385 37.0711 103.29 40.2275 103.29 40.2275C78.7822 50.3725 51.126 61.194 28.6416 71.79C19.4687 75.1553 24.7674 78.5199 24.8193 78.5527L39.4346 83.0625C46.162 85.0861 49.7585 82.8487 49.7773 82.8369L81.2559 61.4189C92.4973 53.7544 89.7996 60.066 87.1016 62.7715L63.4932 85.3164C59.8957 88.4727 61.6936 91.1785 63.2676 92.5312C68.8888 97.491 84.8525 107.636 85.752 108.312C86.8763 109.214 92.9469 113.271 96.9941 112.37C101.031 111.471 101.489 106.31 101.491 106.283L106.888 70.8877C108.462 58.9394 110.485 47.893 110.71 44.7363Z" fill="#00BE7F"/>
</svg>
