<svg width="146" height="146" viewBox="0 0 146 146" fill="none" xmlns="http://www.w3.org/2000/svg">
<circle cx="73" cy="73" r="73" fill="#F0EEED"/>
<path d="M100.29 37.227C100.29 37.227 108.385 34.0707 107.71 41.7359C107.485 44.8922 105.462 55.9391 103.888 67.8878L98.4915 103.283C98.4915 103.283 98.0419 108.468 93.9946 109.37C89.9473 110.272 83.8767 106.214 82.7523 105.312C81.8529 104.636 65.8892 94.4905 60.2679 89.5307C58.694 88.178 56.8952 85.4726 60.4927 82.3164L84.1015 59.7718C86.7996 57.0664 89.4977 50.7539 78.2554 58.4191L46.7773 79.8366C46.7773 79.8366 43.1798 82.091 36.4346 80.062L21.8196 75.553C21.8196 75.553 16.4234 72.1714 25.642 68.7895C48.1265 58.1935 75.7823 47.372 100.29 37.227Z" fill="#00BE7F"/>
</svg>
