<svg width="146" height="146" viewBox="0 0 146 146" fill="none" xmlns="http://www.w3.org/2000/svg">
<circle cx="73" cy="73" r="73" fill="#F0EEED"/>
<g clip-path="url(#clip0_1163_62)">
<path d="M112.01 84.49C112.01 84.49 120.095 92.475 122.095 96.17C122.134 96.2233 122.164 96.2824 122.185 96.345C123 97.71 123.2 98.78 122.8 99.57C122.125 100.875 119.84 101.53 119.065 101.585H104.775C103.78 101.585 101.71 101.325 99.19 99.585C97.265 98.24 95.35 96.025 93.495 93.86C90.725 90.645 88.33 87.855 85.905 87.855C85.5987 87.8544 85.2945 87.9051 85.005 88.005C83.17 88.585 80.84 91.2 80.84 98.165C80.84 100.345 79.12 101.585 77.915 101.585H71.37C69.14 101.585 57.53 100.805 47.235 89.95C34.62 76.66 23.29 50 23.18 49.765C22.475 48.04 23.955 47.1 25.555 47.1H39.985C41.92 47.1 42.55 48.27 42.99 49.32C43.5 50.525 45.39 55.345 48.49 60.76C53.51 69.57 56.595 73.155 59.06 73.155C59.5231 73.1564 59.9784 73.0357 60.38 72.805C63.6 71.035 63 59.535 62.85 57.165C62.85 56.705 62.845 52.03 61.195 49.77C60.015 48.15 58.005 47.52 56.79 47.29C57.115 46.82 57.805 46.1 58.69 45.675C60.895 44.575 64.88 44.415 68.835 44.415H71.03C75.32 44.475 76.43 44.75 77.99 45.145C81.13 45.895 81.19 47.93 80.915 54.86C80.835 56.84 80.75 59.07 80.75 61.695C80.75 62.255 80.725 62.88 80.725 63.515C80.63 67.07 80.505 71.075 83.015 72.72C83.3405 72.9228 83.7164 73.0302 84.1 73.03C84.97 73.03 87.575 73.03 94.64 60.905C97.74 55.55 100.14 49.235 100.305 48.76C100.445 48.495 100.865 47.75 101.375 47.45C101.738 47.257 102.144 47.1606 102.555 47.17H119.53C121.38 47.17 122.635 47.45 122.88 48.15C123.29 49.285 122.8 52.75 115.05 63.23C113.745 64.975 112.6 66.485 111.595 67.805C104.57 77.025 104.57 77.49 112.01 84.49Z" fill="#00BE7F"/>
</g>
<defs>
<clipPath id="clip0_1163_62">
<rect width="100" height="100" fill="white" transform="translate(23 23)"/>
</clipPath>
</defs>
</svg>
