<svg width="146" height="146" viewBox="0 0 146 146" fill="none" xmlns="http://www.w3.org/2000/svg">
<path d="M73 0C113.317 0 146 32.6832 146 73C146 113.317 113.317 146 73 146C32.6832 146 0 113.317 0 73C0 32.6832 32.6832 0 73 0ZM68.835 48.415C64.8802 48.415 60.8955 48.575 58.6904 49.6748C57.8054 50.0998 57.115 50.82 56.79 51.29C58.005 51.52 60.0153 52.1497 61.1953 53.7695C62.8453 56.0295 62.8496 60.705 62.8496 61.165C62.9996 63.5351 63.5998 75.0346 60.3799 76.8047C59.9783 77.0353 59.5227 77.1566 59.0596 77.1553C56.5946 77.1549 53.5099 73.5693 48.4902 64.7598C45.3906 59.3453 43.5004 54.5259 42.9902 53.3203C42.5503 52.2704 41.9201 51.0998 39.9854 51.0996H25.5547C23.9549 51.0997 22.4751 52.04 23.1797 53.7646C23.2897 53.9996 34.6204 80.6602 47.2354 93.9502C57.5303 104.805 69.1401 105.585 71.3701 105.585H77.915C79.12 105.585 80.8398 104.345 80.8398 102.165C80.8398 95.2001 83.1699 92.5849 85.0049 92.0049C85.2944 91.9049 85.599 91.8548 85.9053 91.8555C88.3302 91.8557 90.7252 94.6455 93.4951 97.8604C95.35 100.025 97.2655 102.24 99.1904 103.585C101.71 105.325 103.78 105.585 104.775 105.585H119.065C119.841 105.53 122.125 104.875 122.8 103.57C123.2 102.78 123 101.71 122.185 100.345C122.164 100.282 122.134 100.223 122.095 100.17C120.095 96.4748 112.01 88.4902 112.01 88.4902C104.57 81.4902 104.57 81.0247 111.595 71.8047C112.6 70.4848 113.745 68.9753 115.05 67.2305C122.799 56.7514 123.29 53.2857 122.88 52.1504C122.635 51.4504 121.38 51.1699 119.53 51.1699H102.555C102.144 51.1605 101.738 51.2572 101.375 51.4502C100.865 51.7502 100.445 52.4947 100.305 52.7598C100.14 53.2348 97.7396 59.5503 94.6396 64.9053C87.5748 77.0299 84.9696 77.0303 84.0996 77.0303C83.7162 77.0304 83.3401 76.9225 83.0146 76.7197C80.505 75.0746 80.6296 71.0695 80.7246 67.5146C80.7246 66.8799 80.75 66.2551 80.75 65.6953C80.75 63.0705 80.835 60.8403 80.915 58.8604C81.19 51.9304 81.1301 49.8946 77.9902 49.1445C76.4303 48.7495 75.32 48.475 71.0303 48.415H68.835Z" fill="#00BE7F"/>
</svg>
