<svg width="800" height="800" viewBox="0 0 800 800" fill="none" xmlns="http://www.w3.org/2000/svg">
<g clip-path="url(#clip0_1057_69)">
<path d="M712.08 491.92C712.08 491.92 776.76 555.8 792.76 585.36C793.071 585.787 793.314 586.259 793.48 586.76C800 597.68 801.6 606.24 798.4 612.56C793 623 774.72 628.24 768.52 628.68H654.2C646.24 628.68 629.68 626.6 609.52 612.68C594.12 601.92 578.8 584.2 563.96 566.88C541.8 541.16 522.64 518.84 503.24 518.84C500.79 518.835 498.356 519.241 496.04 520.04C481.36 524.68 462.72 545.6 462.72 601.32C462.72 618.76 448.96 628.68 439.32 628.68H386.96C369.12 628.68 276.24 622.44 193.88 535.6C92.9602 429.28 2.32018 216 1.44018 214.12C-4.19982 200.32 7.64018 192.8 20.4402 192.8H135.88C151.36 192.8 156.4 202.16 159.92 210.56C164 220.2 179.12 258.76 203.92 302.08C244.08 372.56 268.76 401.24 288.48 401.24C292.185 401.251 295.827 400.285 299.04 398.44C324.8 384.28 320 292.28 318.8 273.32C318.8 269.64 318.76 232.24 305.56 214.16C296.12 201.2 280.04 196.16 270.32 194.32C272.92 190.56 278.44 184.8 285.52 181.4C303.16 172.6 335.04 171.32 366.68 171.32H384.24C418.56 171.8 427.44 174 439.92 177.16C465.04 183.16 465.52 199.44 463.32 254.88C462.68 270.72 462 288.56 462 309.56C462 314.04 461.8 319.04 461.8 324.12C461.04 352.56 460.04 384.6 480.12 397.76C482.725 399.383 485.732 400.242 488.8 400.24C495.76 400.24 516.6 400.24 573.12 303.24C597.92 260.4 617.12 209.88 618.44 206.08C619.56 203.96 622.92 198 627 195.6C629.903 194.056 633.153 193.285 636.44 193.36H772.24C787.04 193.36 797.08 195.6 799.04 201.2C802.32 210.28 798.4 238 736.4 321.84C725.96 335.8 716.8 347.88 708.76 358.44C652.56 432.2 652.56 435.92 712.08 491.92Z" fill="#CE543A"/>
</g>
<defs>
<clipPath id="clip0_1057_69">
<rect width="800" height="800" fill="light"/>
</clipPath>
</defs>
</svg>
